<?xml version="1.0" encoding="UTF-8"?>
<svg version="1.1" xmlns="http://www.w3.org/2000/svg" width="1000" height="600">
<path d="M0 0 C330 0 660 0 1000 0 C1000 198 1000 396 1000 600 C670 600 340 600 0 600 C0 402 0 204 0 0 Z " fill="#28509E" transform="translate(0,0)"/>
<path d="M0 0 C24.75 0 49.5 0 75 0 C75 4.95 75 9.9 75 15 C79.95 15 84.9 15 90 15 C90 19.95 90 24.9 90 30 C85.05 30 80.1 30 75 30 C75 34.95 75 39.9 75 45 C70.05 45 65.1 45 60 45 C60 35.1 60 25.2 60 15 C55.05 15 50.1 15 45 15 C45 24.9 45 34.8 45 45 C40.05 45 35.1 45 30 45 C30 49.95 30 54.9 30 60 C20.1 60 10.2 60 0 60 C0 69.9 0 79.8 0 90 C-9.9 90 -19.8 90 -30 90 C-30 99.9 -30 109.8 -30 120 C-39.9 120 -49.8 120 -60 120 C-60 124.95 -60 129.9 -60 135 C-55.05 135 -50.1 135 -45 135 C-45 139.95 -45 144.9 -45 150 C-40.05 150 -35.1 150 -30 150 C-30 154.95 -30 159.9 -30 165 C-25.05 165 -20.1 165 -15 165 C-15 160.05 -15 155.1 -15 150 C-10.05 150 -5.1 150 0 150 C0 145.05 0 140.1 0 135 C29.7 135 59.4 135 90 135 C90 139.95 90 144.9 90 150 C94.95 150 99.9 150 105 150 C105 154.95 105 159.9 105 165 C114.9 165 124.8 165 135 165 C135 160.05 135 155.1 135 150 C139.95 150 144.9 150 150 150 C150 145.05 150 140.1 150 135 C154.95 135 159.9 135 165 135 C165 130.05 165 125.1 165 120 C150.15 120 135.3 120 120 120 C120 105.15 120 90.3 120 75 C115.05 75 110.1 75 105 75 C105 70.05 105 65.1 105 60 C100.05 60 95.1 60 90 60 C90 55.05 90 50.1 90 45 C94.95 45 99.9 45 105 45 C105 35.1 105 25.2 105 15 C109.95 15 114.9 15 120 15 C120 19.95 120 24.9 120 30 C129.9 30 139.8 30 150 30 C150 34.95 150 39.9 150 45 C154.95 45 159.9 45 165 45 C165 49.95 165 54.9 165 60 C169.95 60 174.9 60 180 60 C180 64.95 180 69.9 180 75 C184.95 75 189.9 75 195 75 C195 79.95 195 84.9 195 90 C199.95 90 204.9 90 210 90 C210 99.9 210 109.8 210 120 C214.95 120 219.9 120 225 120 C225 159.6 225 199.2 225 240 C220.05 240 215.1 240 210 240 C210 249.9 210 259.8 210 270 C205.05 270 200.1 270 195 270 C195 274.95 195 279.9 195 285 C190.05 285 185.1 285 180 285 C180 289.95 180 294.9 180 300 C175.05 300 170.1 300 165 300 C165 304.95 165 309.9 165 315 C160.05 315 155.1 315 150 315 C150 319.95 150 324.9 150 330 C145.05 330 140.1 330 135 330 C135 334.95 135 339.9 135 345 C120.15 345 105.3 345 90 345 C90 349.95 90 354.9 90 360 C60.3 360 30.6 360 0 360 C0 355.05 0 350.1 0 345 C-9.9 345 -19.8 345 -30 345 C-30 340.05 -30 335.1 -30 330 C-34.95 330 -39.9 330 -45 330 C-45 325.05 -45 320.1 -45 315 C-54.9 315 -64.8 315 -75 315 C-75 310.05 -75 305.1 -75 300 C-79.95 300 -84.9 300 -90 300 C-90 295.05 -90 290.1 -90 285 C-94.95 285 -99.9 285 -105 285 C-105 270.15 -105 255.3 -105 240 C-109.95 240 -114.9 240 -120 240 C-120 215.25 -120 190.5 -120 165 C-110.1 165 -100.2 165 -90 165 C-90 160.05 -90 155.1 -90 150 C-99.9 150 -109.8 150 -120 150 C-120 135.15 -120 120.3 -120 105 C-115.05 105 -110.1 105 -105 105 C-105 100.05 -105 95.1 -105 90 C-100.05 90 -95.1 90 -90 90 C-90 80.1 -90 70.2 -90 60 C-85.05 60 -80.1 60 -75 60 C-75 55.05 -75 50.1 -75 45 C-65.1 45 -55.2 45 -45 45 C-45 40.05 -45 35.1 -45 30 C-40.05 30 -35.1 30 -30 30 C-30 25.05 -30 20.1 -30 15 C-20.1 15 -10.2 15 0 15 C0 10.05 0 5.1 0 0 Z " fill="#D1CFC8" transform="translate(450,120)"/>
<path d="M0 0 C326.7 0 653.4 0 990 0 C990 19.8 990 39.6 990 60 C663.3 60 336.6 60 0 60 C0 40.2 0 20.4 0 0 Z " fill="#EC1C24" transform="translate(0,540)"/>
<path d="M0 0 C326.7 0 653.4 0 990 0 C990 19.8 990 39.6 990 60 C663.3 60 336.6 60 0 60 C0 40.2 0 20.4 0 0 Z " fill="#EC1C24" transform="translate(0,0)"/>
<path d="M0 0 C14.85 0 29.7 0 45 0 C45 14.85 45 29.7 45 45 C40.05 45 35.1 45 30 45 C30 54.9 30 64.8 30 75 C25.05 75 20.1 75 15 75 C15 79.95 15 84.9 15 90 C10.05 90 5.1 90 0 90 C0 94.95 0 99.9 0 105 C-4.95 105 -9.9 105 -15 105 C-15 109.95 -15 114.9 -15 120 C-19.95 120 -24.9 120 -30 120 C-30 124.95 -30 129.9 -30 135 C-34.95 135 -39.9 135 -45 135 C-45 139.95 -45 144.9 -45 150 C-59.85 150 -74.7 150 -90 150 C-90 154.95 -90 159.9 -90 165 C-119.7 165 -149.4 165 -180 165 C-180 160.05 -180 155.1 -180 150 C-189.9 150 -199.8 150 -210 150 C-210 145.05 -210 140.1 -210 135 C-214.95 135 -219.9 135 -225 135 C-225 130.05 -225 125.1 -225 120 C-234.9 120 -244.8 120 -255 120 C-255 115.05 -255 110.1 -255 105 C-259.95 105 -264.9 105 -270 105 C-270 100.05 -270 95.1 -270 90 C-274.95 90 -279.9 90 -285 90 C-285 85.05 -285 80.1 -285 75 C-280.05 75 -275.1 75 -270 75 C-270 70.05 -270 65.1 -270 60 C-260.1 60 -250.2 60 -240 60 C-240 55.05 -240 50.1 -240 45 C-220.2 45 -200.4 45 -180 45 C-180 40.05 -180 35.1 -180 30 C-175.05 30 -170.1 30 -165 30 C-165 34.95 -165 39.9 -165 45 C-120.45 45 -75.9 45 -30 45 C-30 49.95 -30 54.9 -30 60 C-25.05 60 -20.1 60 -15 60 C-15 50.1 -15 40.2 -15 30 C-5.1 30 4.8 30 15 30 C15 25.05 15 20.1 15 15 C10.05 15 5.1 15 0 15 C0 10.05 0 5.1 0 0 Z " fill="#CEC9AF" transform="translate(630,315)"/>
<path d="M0 0 C4.95 0 9.9 0 15 0 C15 9.9 15 19.8 15 30 C19.95 30 24.9 30 30 30 C30 25.05 30 20.1 30 15 C34.95 15 39.9 15 45 15 C45 10.05 45 5.1 45 0 C49.95 0 54.9 0 60 0 C60 9.9 60 19.8 60 30 C55.05 30 50.1 30 45 30 C45 34.95 45 39.9 45 45 C49.95 45 54.9 45 60 45 C60 49.95 60 54.9 60 60 C64.95 60 69.9 60 75 60 C75 74.85 75 89.7 75 105 C89.85 105 104.7 105 120 105 C120 109.95 120 114.9 120 120 C115.05 120 110.1 120 105 120 C105 124.95 105 129.9 105 135 C100.05 135 95.1 135 90 135 C90 139.95 90 144.9 90 150 C80.1 150 70.2 150 60 150 C60 145.05 60 140.1 60 135 C55.05 135 50.1 135 45 135 C45 130.05 45 125.1 45 120 C15.3 120 -14.4 120 -45 120 C-45 124.95 -45 129.9 -45 135 C-49.95 135 -54.9 135 -60 135 C-60 139.95 -60 144.9 -60 150 C-64.95 150 -69.9 150 -75 150 C-75 145.05 -75 140.1 -75 135 C-79.95 135 -84.9 135 -90 135 C-90 130.05 -90 125.1 -90 120 C-94.95 120 -99.9 120 -105 120 C-105 115.05 -105 110.1 -105 105 C-95.1 105 -85.2 105 -75 105 C-75 95.1 -75 85.2 -75 75 C-65.1 75 -55.2 75 -45 75 C-45 65.1 -45 55.2 -45 45 C-35.1 45 -25.2 45 -15 45 C-15 40.05 -15 35.1 -15 30 C-10.05 30 -5.1 30 0 30 C0 20.1 0 10.2 0 0 Z " fill="#948C6B" transform="translate(495,135)"/>
<path d="M0 0 C24.75 0 49.5 0 75 0 C75 4.95 75 9.9 75 15 C79.95 15 84.9 15 90 15 C90 19.95 90 24.9 90 30 C85.05 30 80.1 30 75 30 C75 34.95 75 39.9 75 45 C70.05 45 65.1 45 60 45 C60 35.1 60 25.2 60 15 C55.05 15 50.1 15 45 15 C45 24.9 45 34.8 45 45 C40.05 45 35.1 45 30 45 C30 49.95 30 54.9 30 60 C20.1 60 10.2 60 0 60 C0 69.9 0 79.8 0 90 C-9.9 90 -19.8 90 -30 90 C-30 85.05 -30 80.1 -30 75 C-34.95 75 -39.9 75 -45 75 C-45 79.95 -45 84.9 -45 90 C-49.95 90 -54.9 90 -60 90 C-60 94.95 -60 99.9 -60 105 C-64.95 105 -69.9 105 -75 105 C-75 114.9 -75 124.8 -75 135 C-89.85 135 -104.7 135 -120 135 C-120 125.1 -120 115.2 -120 105 C-115.05 105 -110.1 105 -105 105 C-105 100.05 -105 95.1 -105 90 C-100.05 90 -95.1 90 -90 90 C-90 80.1 -90 70.2 -90 60 C-85.05 60 -80.1 60 -75 60 C-75 55.05 -75 50.1 -75 45 C-65.1 45 -55.2 45 -45 45 C-45 40.05 -45 35.1 -45 30 C-40.05 30 -35.1 30 -30 30 C-30 25.05 -30 20.1 -30 15 C-20.1 15 -10.2 15 0 15 C0 10.05 0 5.1 0 0 Z " fill="#CDC59E" transform="translate(450,120)"/>
<path d="M0 0 C4.95 0 9.9 0 15 0 C15 4.95 15 9.9 15 15 C24.9 15 34.8 15 45 15 C45 19.95 45 24.9 45 30 C49.95 30 54.9 30 60 30 C60 34.95 60 39.9 60 45 C64.95 45 69.9 45 75 45 C75 49.95 75 54.9 75 60 C79.95 60 84.9 60 90 60 C90 64.95 90 69.9 90 75 C94.95 75 99.9 75 105 75 C105 84.9 105 94.8 105 105 C109.95 105 114.9 105 120 105 C120 124.8 120 144.6 120 165 C105.15 165 90.3 165 75 165 C75 150.15 75 135.3 75 120 C70.05 120 65.1 120 60 120 C60 115.05 60 110.1 60 105 C45.15 105 30.3 105 15 105 C15 90.15 15 75.3 15 60 C10.05 60 5.1 60 0 60 C0 55.05 0 50.1 0 45 C-4.95 45 -9.9 45 -15 45 C-15 40.05 -15 35.1 -15 30 C-10.05 30 -5.1 30 0 30 C0 20.1 0 10.2 0 0 Z " fill="#CDC59E" transform="translate(555,135)"/>
<path d="M0 0 C9.9 0 19.8 0 30 0 C30 9.9 30 19.8 30 30 C39.9 30 49.8 30 60 30 C60 34.95 60 39.9 60 45 C69.9 45 79.8 45 90 45 C90 49.95 90 54.9 90 60 C104.85 60 119.7 60 135 60 C135 64.95 135 69.9 135 75 C130.05 75 125.1 75 120 75 C120 79.95 120 84.9 120 90 C129.9 90 139.8 90 150 90 C150 80.1 150 70.2 150 60 C154.95 60 159.9 60 165 60 C165 69.9 165 79.8 165 90 C169.95 90 174.9 90 180 90 C180 94.95 180 99.9 180 105 C150.3 105 120.6 105 90 105 C90 100.05 90 95.1 90 90 C80.1 90 70.2 90 60 90 C60 85.05 60 80.1 60 75 C55.05 75 50.1 75 45 75 C45 70.05 45 65.1 45 60 C35.1 60 25.2 60 15 60 C15 55.05 15 50.1 15 45 C10.05 45 5.1 45 0 45 C0 40.05 0 35.1 0 30 C-4.95 30 -9.9 30 -15 30 C-15 25.05 -15 20.1 -15 15 C-10.05 15 -5.1 15 0 15 C0 10.05 0 5.1 0 0 Z " fill="#CDC59E" transform="translate(360,375)"/>
<path d="M0 0 C4.95 0 9.9 0 15 0 C15 4.95 15 9.9 15 15 C54.6 15 94.2 15 135 15 C135 24.9 135 34.8 135 45 C130.05 45 125.1 45 120 45 C120 49.95 120 54.9 120 60 C110.1 60 100.2 60 90 60 C90 55.05 90 50.1 90 45 C70.2 45 50.4 45 30 45 C30 49.95 30 54.9 30 60 C39.9 60 49.8 60 60 60 C60 64.95 60 69.9 60 75 C45.15 75 30.3 75 15 75 C15 70.05 15 65.1 15 60 C5.1 60 -4.8 60 -15 60 C-15 50.1 -15 40.2 -15 30 C-29.85 30 -44.7 30 -60 30 C-60 25.05 -60 20.1 -60 15 C-40.2 15 -20.4 15 0 15 C0 10.05 0 5.1 0 0 Z " fill="#9C846B" transform="translate(450,345)"/>
<path d="M0 0 C14.85 0 29.7 0 45 0 C45 9.9 45 19.8 45 30 C54.9 30 64.8 30 75 30 C75 34.95 75 39.9 75 45 C89.85 45 104.7 45 120 45 C120 40.05 120 35.1 120 30 C110.1 30 100.2 30 90 30 C90 25.05 90 20.1 90 15 C109.8 15 129.6 15 150 15 C150 19.95 150 24.9 150 30 C159.9 30 169.8 30 180 30 C180 39.9 180 49.8 180 60 C170.1 60 160.2 60 150 60 C150 64.95 150 69.9 150 75 C154.95 75 159.9 75 165 75 C165 79.95 165 84.9 165 90 C155.1 90 145.2 90 135 90 C135 80.1 135 70.2 135 60 C130.05 60 125.1 60 120 60 C120 69.9 120 79.8 120 90 C110.1 90 100.2 90 90 90 C90 85.05 90 80.1 90 75 C94.95 75 99.9 75 105 75 C105 70.05 105 65.1 105 60 C90.15 60 75.3 60 60 60 C60 55.05 60 50.1 60 45 C50.1 45 40.2 45 30 45 C30 40.05 30 35.1 30 30 C20.1 30 10.2 30 0 30 C0 20.1 0 10.2 0 0 Z " fill="#CEC9AF" transform="translate(390,375)"/>
<path d="M0 0 C4.95 0 9.9 0 15 0 C15 14.85 15 29.7 15 45 C5.1 45 -4.8 45 -15 45 C-15 49.95 -15 54.9 -15 60 C-10.05 60 -5.1 60 0 60 C0 64.95 0 69.9 0 75 C-9.9 75 -19.8 75 -30 75 C-30 94.8 -30 114.6 -30 135 C-34.95 135 -39.9 135 -45 135 C-45 139.95 -45 144.9 -45 150 C-40.05 150 -35.1 150 -30 150 C-30 154.95 -30 159.9 -30 165 C-44.85 165 -59.7 165 -75 165 C-75 140.25 -75 115.5 -75 90 C-65.1 90 -55.2 90 -45 90 C-45 85.05 -45 80.1 -45 75 C-54.9 75 -64.8 75 -75 75 C-75 70.05 -75 65.1 -75 60 C-60.15 60 -45.3 60 -30 60 C-30 50.1 -30 40.2 -30 30 C-25.05 30 -20.1 30 -15 30 C-15 25.05 -15 20.1 -15 15 C-10.05 15 -5.1 15 0 15 C0 10.05 0 5.1 0 0 Z " fill="#D2D2D2" transform="translate(405,195)"/>
<path d="M0 0 C3.3 0 6.6 0 10 0 C10 198 10 396 10 600 C6.7 600 3.4 600 0 600 C0 402 0 204 0 0 Z " fill="#000000" transform="translate(990,0)"/>
<path d="M0 0 C19.8 0 39.6 0 60 0 C60 14.85 60 29.7 60 45 C74.85 45 89.7 45 105 45 C105 49.95 105 54.9 105 60 C100.05 60 95.1 60 90 60 C90 64.95 90 69.9 90 75 C85.05 75 80.1 75 75 75 C75 79.95 75 84.9 75 90 C65.1 90 55.2 90 45 90 C45 85.05 45 80.1 45 75 C40.05 75 35.1 75 30 75 C30 70.05 30 65.1 30 60 C20.1 60 10.2 60 0 60 C0 40.2 0 20.4 0 0 Z " fill="#684634" transform="translate(510,195)"/>
<path d="M0 0 C9.9 0 19.8 0 30 0 C30 14.85 30 29.7 30 45 C44.85 45 59.7 45 75 45 C75 49.95 75 54.9 75 60 C60.15 60 45.3 60 30 60 C30 64.95 30 69.9 30 75 C34.95 75 39.9 75 45 75 C45 79.95 45 84.9 45 90 C35.1 90 25.2 90 15 90 C15 99.9 15 109.8 15 120 C10.05 120 5.1 120 0 120 C0 115.05 0 110.1 0 105 C-4.95 105 -9.9 105 -15 105 C-15 75.3 -15 45.6 -15 15 C-10.05 15 -5.1 15 0 15 C0 10.05 0 5.1 0 0 Z " fill="#FEFEFF" transform="translate(600,255)"/>
<path d="M0 0 C14.85 0 29.7 0 45 0 C45 14.85 45 29.7 45 45 C40.05 45 35.1 45 30 45 C30 59.85 30 74.7 30 90 C25.05 90 20.1 90 15 90 C15 94.95 15 99.9 15 105 C5.1 105 -4.8 105 -15 105 C-15 109.95 -15 114.9 -15 120 C-19.95 120 -24.9 120 -30 120 C-30 110.1 -30 100.2 -30 90 C-20.1 90 -10.2 90 0 90 C0 85.05 0 80.1 0 75 C-4.95 75 -9.9 75 -15 75 C-15 70.05 -15 65.1 -15 60 C-10.05 60 -5.1 60 0 60 C0 40.2 0 20.4 0 0 Z " fill="#FEFFFE" transform="translate(375,270)"/>
<path d="M0 0 C24.75 0 49.5 0 75 0 C75 4.95 75 9.9 75 15 C79.95 15 84.9 15 90 15 C90 19.95 90 24.9 90 30 C85.05 30 80.1 30 75 30 C75 34.95 75 39.9 75 45 C70.05 45 65.1 45 60 45 C60 35.1 60 25.2 60 15 C55.05 15 50.1 15 45 15 C45 24.9 45 34.8 45 45 C40.05 45 35.1 45 30 45 C30 49.95 30 54.9 30 60 C15.15 60 0.3 60 -15 60 C-15 50.1 -15 40.2 -15 30 C-19.95 30 -24.9 30 -30 30 C-30 25.05 -30 20.1 -30 15 C-20.1 15 -10.2 15 0 15 C0 10.05 0 5.1 0 0 Z " fill="#AAAAAA" transform="translate(450,120)"/>
<path d="M0 0 C9.9 0 19.8 0 30 0 C30 14.85 30 29.7 30 45 C15.15 45 0.3 45 -15 45 C-15 49.95 -15 54.9 -15 60 C-0.15 60 14.7 60 30 60 C30 64.95 30 69.9 30 75 C20.1 75 10.2 75 0 75 C0 79.95 0 84.9 0 90 C-4.95 90 -9.9 90 -15 90 C-15 94.95 -15 99.9 -15 105 C-19.95 105 -24.9 105 -30 105 C-30 100.05 -30 95.1 -30 90 C-34.95 90 -39.9 90 -45 90 C-45 85.05 -45 80.1 -45 75 C-49.95 75 -54.9 75 -60 75 C-60 70.05 -60 65.1 -60 60 C-50.1 60 -40.2 60 -30 60 C-30 50.1 -30 40.2 -30 30 C-20.1 30 -10.2 30 0 30 C0 20.1 0 10.2 0 0 Z " fill="#9C846B" transform="translate(450,180)"/>
<path d="M0 0 C39.6 0 79.2 0 120 0 C120 9.9 120 19.8 120 30 C115.05 30 110.1 30 105 30 C105 34.95 105 39.9 105 45 C95.1 45 85.2 45 75 45 C75 40.05 75 35.1 75 30 C60.15 30 45.3 30 30 30 C30 25.05 30 20.1 30 15 C20.1 15 10.2 15 0 15 C0 10.05 0 5.1 0 0 Z " fill="#948C6B" transform="translate(465,360)"/>
<path d="M0 0 C14.85 0 29.7 0 45 0 C45 24.75 45 49.5 45 75 C30.15 75 15.3 75 0 75 C0 70.05 0 65.1 0 60 C-4.95 60 -9.9 60 -15 60 C-15 55.05 -15 50.1 -15 45 C-10.05 45 -5.1 45 0 45 C0 30.15 0 15.3 0 0 Z " fill="#D2D2D2" transform="translate(540,285)"/>
<path d="M0 0 C19.8 0 39.6 0 60 0 C60 4.95 60 9.9 60 15 C69.9 15 79.8 15 90 15 C90 24.9 90 34.8 90 45 C80.1 45 70.2 45 60 45 C60 49.95 60 54.9 60 60 C64.95 60 69.9 60 75 60 C75 64.95 75 69.9 75 75 C65.1 75 55.2 75 45 75 C45 65.1 45 55.2 45 45 C40.05 45 35.1 45 30 45 C30 35.1 30 25.2 30 15 C20.1 15 10.2 15 0 15 C0 10.05 0 5.1 0 0 Z " fill="#B3B9D1" transform="translate(480,390)"/>
<path d="M0 0 C9.9 0 19.8 0 30 0 C30 4.95 30 9.9 30 15 C25.05 15 20.1 15 15 15 C15 19.95 15 24.9 15 30 C24.9 30 34.8 30 45 30 C45 20.1 45 10.2 45 0 C49.95 0 54.9 0 60 0 C60 9.9 60 19.8 60 30 C64.95 30 69.9 30 75 30 C75 34.95 75 39.9 75 45 C45.3 45 15.6 45 -15 45 C-15 40.05 -15 35.1 -15 30 C-10.05 30 -5.1 30 0 30 C0 20.1 0 10.2 0 0 Z " fill="#B3B9D1" transform="translate(465,435)"/>
<path d="M0 0 C9.9 0 19.8 0 30 0 C30 19.8 30 39.6 30 60 C15.15 60 0.3 60 -15 60 C-15 45.15 -15 30.3 -15 15 C-10.05 15 -5.1 15 0 15 C0 10.05 0 5.1 0 0 Z " fill="#CDC59E" transform="translate(645,240)"/>
<path d="M0 0 C4.95 0 9.9 0 15 0 C15 4.95 15 9.9 15 15 C19.95 15 24.9 15 30 15 C30 24.9 30 34.8 30 45 C25.05 45 20.1 45 15 45 C15 49.95 15 54.9 15 60 C5.1 60 -4.8 60 -15 60 C-15 55.05 -15 50.1 -15 45 C-19.95 45 -24.9 45 -30 45 C-30 40.05 -30 35.1 -30 30 C-20.1 30 -10.2 30 0 30 C0 20.1 0 10.2 0 0 Z " fill="#7A71C4" transform="translate(570,405)"/>
<path d="M0 0 C4.95 0 9.9 0 15 0 C15 4.95 15 9.9 15 15 C19.95 15 24.9 15 30 15 C30 19.95 30 24.9 30 30 C25.05 30 20.1 30 15 30 C15 34.95 15 39.9 15 45 C19.95 45 24.9 45 30 45 C30 49.95 30 54.9 30 60 C15.15 60 0.3 60 -15 60 C-15 45.15 -15 30.3 -15 15 C-10.05 15 -5.1 15 0 15 C0 10.05 0 5.1 0 0 Z " fill="#CDC59E" transform="translate(345,300)"/>
<path d="M0 0 C9.9 0 19.8 0 30 0 C30 9.9 30 19.8 30 30 C34.95 30 39.9 30 45 30 C45 20.1 45 10.2 45 0 C49.95 0 54.9 0 60 0 C60 4.95 60 9.9 60 15 C64.95 15 69.9 15 75 15 C75 19.95 75 24.9 75 30 C70.05 30 65.1 30 60 30 C60 34.95 60 39.9 60 45 C45.15 45 30.3 45 15 45 C15 35.1 15 25.2 15 15 C10.05 15 5.1 15 0 15 C0 10.05 0 5.1 0 0 Z " fill="#D2D2D2" transform="translate(420,135)"/>
<path d="M0 0 C9.9 0 19.8 0 30 0 C30 4.95 30 9.9 30 15 C34.95 15 39.9 15 45 15 C45 10.05 45 5.1 45 0 C49.95 0 54.9 0 60 0 C60 4.95 60 9.9 60 15 C64.95 15 69.9 15 75 15 C75 19.95 75 24.9 75 30 C50.25 30 25.5 30 0 30 C0 20.1 0 10.2 0 0 Z " fill="#AAAAAA" transform="translate(465,330)"/>
<path d="M0 0 C9.9 0 19.8 0 30 0 C30 14.85 30 29.7 30 45 C15.15 45 0.3 45 -15 45 C-15 35.1 -15 25.2 -15 15 C-10.05 15 -5.1 15 0 15 C0 10.05 0 5.1 0 0 Z " fill="#CDC59E" transform="translate(345,210)"/>
<path d="M0 0 C4.95 0 9.9 0 15 0 C15 4.95 15 9.9 15 15 C24.9 15 34.8 15 45 15 C45 24.9 45 34.8 45 45 C30.15 45 15.3 45 0 45 C0 30.15 0 15.3 0 0 Z " fill="#5A944A" transform="translate(510,210)"/>
<path d="M0 0 C4.95 0 9.9 0 15 0 C15 4.95 15 9.9 15 15 C24.9 15 34.8 15 45 15 C45 19.95 45 24.9 45 30 C35.1 30 25.2 30 15 30 C15 39.9 15 49.8 15 60 C10.05 60 5.1 60 0 60 C0 55.05 0 50.1 0 45 C-4.95 45 -9.9 45 -15 45 C-15 40.05 -15 35.1 -15 30 C-10.05 30 -5.1 30 0 30 C0 20.1 0 10.2 0 0 Z " fill="#CDC59E" transform="translate(555,135)"/>
<path d="M0 0 C9.9 0 19.8 0 30 0 C30 4.95 30 9.9 30 15 C39.9 15 49.8 15 60 15 C60 19.95 60 24.9 60 30 C55.05 30 50.1 30 45 30 C45 34.95 45 39.9 45 45 C40.05 45 35.1 45 30 45 C30 40.05 30 35.1 30 30 C25.05 30 20.1 30 15 30 C15 25.05 15 20.1 15 15 C10.05 15 5.1 15 0 15 C0 10.05 0 5.1 0 0 Z " fill="#D2D2D2" transform="translate(570,390)"/>
<path d="M0 0 C19.8 0 39.6 0 60 0 C60 9.9 60 19.8 60 30 C50.1 30 40.2 30 30 30 C30 25.05 30 20.1 30 15 C20.1 15 10.2 15 0 15 C0 10.05 0 5.1 0 0 Z " fill="#9C846B" transform="translate(480,390)"/>
<path d="M0 0 C4.95 0 9.9 0 15 0 C15 4.95 15 9.9 15 15 C24.9 15 34.8 15 45 15 C45 24.9 45 34.8 45 45 C35.1 45 25.2 45 15 45 C15 40.05 15 35.1 15 30 C10.05 30 5.1 30 0 30 C0 20.1 0 10.2 0 0 Z " fill="#CCC59E" transform="translate(585,360)"/>
<path d="M0 0 C4.95 0 9.9 0 15 0 C15 9.9 15 19.8 15 30 C-9.75 30 -34.5 30 -60 30 C-60 25.05 -60 20.1 -60 15 C-40.2 15 -20.4 15 0 15 C0 10.05 0 5.1 0 0 Z " fill="#5A944A" transform="translate(450,345)"/>
<path d="M0 0 C19.8 0 39.6 0 60 0 C60 4.95 60 9.9 60 15 C55.05 15 50.1 15 45 15 C45 19.95 45 24.9 45 30 C35.1 30 25.2 30 15 30 C15 25.05 15 20.1 15 15 C10.05 15 5.1 15 0 15 C0 10.05 0 5.1 0 0 Z " fill="#6D643F" transform="translate(510,195)"/>
<path d="M0 0 C19.8 0 39.6 0 60 0 C60 4.95 60 9.9 60 15 C55.05 15 50.1 15 45 15 C45 19.95 45 24.9 45 30 C40.05 30 35.1 30 30 30 C30 25.05 30 20.1 30 15 C20.1 15 10.2 15 0 15 C0 10.05 0 5.1 0 0 Z " fill="#0F799E" transform="translate(465,360)"/>
<path d="M0 0 C14.85 0 29.7 0 45 0 C45 14.85 45 29.7 45 45 C40.05 45 35.1 45 30 45 C30 35.1 30 25.2 30 15 C20.1 15 10.2 15 0 15 C0 10.05 0 5.1 0 0 Z " fill="#B3B9D1" transform="translate(630,315)"/>
<path d="M0 0 C4.95 0 9.9 0 15 0 C15 14.85 15 29.7 15 45 C5.1 45 -4.8 45 -15 45 C-15 35.1 -15 25.2 -15 15 C-10.05 15 -5.1 15 0 15 C0 10.05 0 5.1 0 0 Z " fill="#FFFFFF" transform="translate(405,195)"/>
<path d="M0 0 C9.9 0 19.8 0 30 0 C30 14.85 30 29.7 30 45 C25.05 45 20.1 45 15 45 C15 40.05 15 35.1 15 30 C10.05 30 5.1 30 0 30 C0 20.1 0 10.2 0 0 Z " fill="#5A944A" transform="translate(450,180)"/>
<path d="M0 0 C14.85 0 29.7 0 45 0 C45 9.9 45 19.8 45 30 C35.1 30 25.2 30 15 30 C15 25.05 15 20.1 15 15 C10.05 15 5.1 15 0 15 C0 10.05 0 5.1 0 0 Z " fill="#D2D2D2" transform="translate(405,180)"/>
<path d="M0 0 C9.9 0 19.8 0 30 0 C30 4.95 30 9.9 30 15 C34.95 15 39.9 15 45 15 C45 19.95 45 24.9 45 30 C40.05 30 35.1 30 30 30 C30 34.95 30 39.9 30 45 C25.05 45 20.1 45 15 45 C15 35.1 15 25.2 15 15 C10.05 15 5.1 15 0 15 C0 10.05 0 5.1 0 0 Z " fill="#D2D2D2" transform="translate(495,120)"/>
<path d="M0 0 C9.9 0 19.8 0 30 0 C30 9.9 30 19.8 30 30 C20.1 30 10.2 30 0 30 C0 20.1 0 10.2 0 0 Z " fill="#CDC59E" transform="translate(540,405)"/>
<path d="M0 0 C4.95 0 9.9 0 15 0 C15 4.95 15 9.9 15 15 C24.9 15 34.8 15 45 15 C45 19.95 45 24.9 45 30 C30.15 30 15.3 30 0 30 C0 20.1 0 10.2 0 0 Z " fill="#948C6B" transform="translate(465,390)"/>
<path d="M0 0 C19.8 0 39.6 0 60 0 C60 4.95 60 9.9 60 15 C40.2 15 20.4 15 0 15 C0 10.05 0 5.1 0 0 Z " fill="#5A944A" transform="translate(525,360)"/>
<path d="M0 0 C14.85 0 29.7 0 45 0 C45 4.95 45 9.9 45 15 C35.1 15 25.2 15 15 15 C15 19.95 15 24.9 15 30 C10.05 30 5.1 30 0 30 C0 20.1 0 10.2 0 0 Z " fill="#CDC59E" transform="translate(495,255)"/>
<path d="M0 0 C4.95 0 9.9 0 15 0 C15 19.8 15 39.6 15 60 C10.05 60 5.1 60 0 60 C0 40.2 0 20.4 0 0 Z " fill="#B3B9D1" transform="translate(660,240)"/>
<path d="M0 0 C9.9 0 19.8 0 30 0 C30 9.9 30 19.8 30 30 C20.1 30 10.2 30 0 30 C0 20.1 0 10.2 0 0 Z " fill="#AAAAAA" transform="translate(630,210)"/>
<path d="M0 0 C19.8 0 39.6 0 60 0 C60 4.95 60 9.9 60 15 C40.2 15 20.4 15 0 15 C0 10.05 0 5.1 0 0 Z " fill="#5A944A" transform="translate(495,180)"/>
<path d="M0 0 C9.9 0 19.8 0 30 0 C30 14.85 30 29.7 30 45 C25.05 45 20.1 45 15 45 C15 35.1 15 25.2 15 15 C10.05 15 5.1 15 0 15 C0 10.05 0 5.1 0 0 Z " fill="#D2D2D2" transform="translate(420,135)"/>
<path d="M0 0 C4.95 0 9.9 0 15 0 C15 9.9 15 19.8 15 30 C5.1 30 -4.8 30 -15 30 C-15 25.05 -15 20.1 -15 15 C-10.05 15 -5.1 15 0 15 C0 10.05 0 5.1 0 0 Z " fill="#CDC59E" transform="translate(495,435)"/>
<path d="M0 0 C9.9 0 19.8 0 30 0 C30 4.95 30 9.9 30 15 C25.05 15 20.1 15 15 15 C15 19.95 15 24.9 15 30 C10.05 30 5.1 30 0 30 C0 20.1 0 10.2 0 0 Z " fill="#84C572" transform="translate(465,435)"/>
<path d="M0 0 C4.95 0 9.9 0 15 0 C15 4.95 15 9.9 15 15 C19.95 15 24.9 15 30 15 C30 19.95 30 24.9 30 30 C20.1 30 10.2 30 0 30 C0 20.1 0 10.2 0 0 Z " fill="#84C573" transform="translate(570,405)"/>
<path d="M0 0 C9.9 0 19.8 0 30 0 C30 4.95 30 9.9 30 15 C25.05 15 20.1 15 15 15 C15 19.95 15 24.9 15 30 C10.05 30 5.1 30 0 30 C0 20.1 0 10.2 0 0 Z " fill="#D2D2D2" transform="translate(630,375)"/>
<path d="M0 0 C14.85 0 29.7 0 45 0 C45 4.95 45 9.9 45 15 C30.15 15 15.3 15 0 15 C0 10.05 0 5.1 0 0 Z " fill="#D2D2D2" transform="translate(480,390)"/>
<path d="M0 0 C9.9 0 19.8 0 30 0 C30 9.9 30 19.8 30 30 C25.05 30 20.1 30 15 30 C15 25.05 15 20.1 15 15 C10.05 15 5.1 15 0 15 C0 10.05 0 5.1 0 0 Z " fill="#AAAAAA" transform="translate(345,390)"/>
<path d="M0 0 C9.9 0 19.8 0 30 0 C30 9.9 30 19.8 30 30 C25.05 30 20.1 30 15 30 C15 25.05 15 20.1 15 15 C10.05 15 5.1 15 0 15 C0 10.05 0 5.1 0 0 Z " fill="#84C573" transform="translate(360,375)"/>
<path d="M0 0 C9.9 0 19.8 0 30 0 C30 4.95 30 9.9 30 15 C25.05 15 20.1 15 15 15 C15 19.95 15 24.9 15 30 C10.05 30 5.1 30 0 30 C0 20.1 0 10.2 0 0 Z " fill="#CDC59E" transform="translate(345,360)"/>
<path d="M0 0 C9.9 0 19.8 0 30 0 C30 9.9 30 19.8 30 30 C25.05 30 20.1 30 15 30 C15 25.05 15 20.1 15 15 C10.05 15 5.1 15 0 15 C0 10.05 0 5.1 0 0 Z " fill="#B3B9D1" transform="translate(480,315)"/>
<path d="M0 0 C14.85 0 29.7 0 45 0 C45 4.95 45 9.9 45 15 C30.15 15 15.3 15 0 15 C0 10.05 0 5.1 0 0 Z " fill="#CDC59E" transform="translate(630,300)"/>
<path d="M0 0 C14.85 0 29.7 0 45 0 C45 4.95 45 9.9 45 15 C30.15 15 15.3 15 0 15 C0 10.05 0 5.1 0 0 Z " fill="#D6B594" transform="translate(510,270)"/>
<path d="M0 0 C4.95 0 9.9 0 15 0 C15 9.9 15 19.8 15 30 C5.1 30 -4.8 30 -15 30 C-15 25.05 -15 20.1 -15 15 C-10.05 15 -5.1 15 0 15 C0 10.05 0 5.1 0 0 Z " fill="#D6B594" transform="translate(450,255)"/>
<path d="M0 0 C4.95 0 9.9 0 15 0 C15 9.9 15 19.8 15 30 C5.1 30 -4.8 30 -15 30 C-15 25.05 -15 20.1 -15 15 C-10.05 15 -5.1 15 0 15 C0 10.05 0 5.1 0 0 Z " fill="#84C573" transform="translate(645,240)"/>
<path d="M0 0 C4.95 0 9.9 0 15 0 C15 4.95 15 9.9 15 15 C19.95 15 24.9 15 30 15 C30 19.95 30 24.9 30 30 C20.1 30 10.2 30 0 30 C0 20.1 0 10.2 0 0 Z " fill="#FFFFFE" transform="translate(585,210)"/>
<path d="M0 0 C9.9 0 19.8 0 30 0 C30 9.9 30 19.8 30 30 C25.05 30 20.1 30 15 30 C15 25.05 15 20.1 15 15 C10.05 15 5.1 15 0 15 C0 10.05 0 5.1 0 0 Z " fill="#84C573" transform="translate(360,195)"/>
<path d="M0 0 C4.95 0 9.9 0 15 0 C15 4.95 15 9.9 15 15 C19.95 15 24.9 15 30 15 C30 19.95 30 24.9 30 30 C20.1 30 10.2 30 0 30 C0 20.1 0 10.2 0 0 Z " fill="#D2D2D2" transform="translate(615,180)"/>
<path d="M0 0 C9.9 0 19.8 0 30 0 C30 9.9 30 19.8 30 30 C25.05 30 20.1 30 15 30 C15 25.05 15 20.1 15 15 C10.05 15 5.1 15 0 15 C0 10.05 0 5.1 0 0 Z " fill="#D2D2D2" transform="translate(540,165)"/>
<path d="M0 0 C4.95 0 9.9 0 15 0 C15 9.9 15 19.8 15 30 C5.1 30 -4.8 30 -15 30 C-15 25.05 -15 20.1 -15 15 C-10.05 15 -5.1 15 0 15 C0 10.05 0 5.1 0 0 Z " fill="#5A944A" transform="translate(540,135)"/>
<path d="M0 0 C9.9 0 19.8 0 30 0 C30 9.9 30 19.8 30 30 C25.05 30 20.1 30 15 30 C15 25.05 15 20.1 15 15 C10.05 15 5.1 15 0 15 C0 10.05 0 5.1 0 0 Z " fill="#84C573" transform="translate(405,150)"/>
<path d="M0 0 C9.9 0 19.8 0 30 0 C30 4.95 30 9.9 30 15 C20.1 15 10.2 15 0 15 C0 10.05 0 5.1 0 0 Z " fill="#7A71C4" transform="translate(450,465)"/>
<path d="M0 0 C9.9 0 19.8 0 30 0 C30 4.95 30 9.9 30 15 C20.1 15 10.2 15 0 15 C0 10.05 0 5.1 0 0 Z " fill="#FFFFFF" transform="translate(525,450)"/>
<path d="M0 0 C9.9 0 19.8 0 30 0 C30 4.95 30 9.9 30 15 C20.1 15 10.2 15 0 15 C0 10.05 0 5.1 0 0 Z " fill="#D2D2D2" transform="translate(570,435)"/>
<path d="M0 0 C9.9 0 19.8 0 30 0 C30 4.95 30 9.9 30 15 C20.1 15 10.2 15 0 15 C0 10.05 0 5.1 0 0 Z " fill="#84C573" transform="translate(540,435)"/>
<path d="M0 0 C4.95 0 9.9 0 15 0 C15 9.9 15 19.8 15 30 C10.05 30 5.1 30 0 30 C0 20.1 0 10.2 0 0 Z " fill="#5A944A" transform="translate(510,435)"/>
<path d="M0 0 C9.9 0 19.8 0 30 0 C30 4.95 30 9.9 30 15 C20.1 15 10.2 15 0 15 C0 10.05 0 5.1 0 0 Z " fill="#FFFFFF" transform="translate(480,420)"/>
<path d="M0 0 C4.95 0 9.9 0 15 0 C15 9.9 15 19.8 15 30 C10.05 30 5.1 30 0 30 C0 20.1 0 10.2 0 0 Z " fill="#B3B9D1" transform="translate(375,405)"/>
<path d="M0 0 C9.9 0 19.8 0 30 0 C30 4.95 30 9.9 30 15 C20.1 15 10.2 15 0 15 C0 10.05 0 5.1 0 0 Z " fill="#D2D2D2" transform="translate(540,405)"/>
<path d="M0 0 C9.9 0 19.8 0 30 0 C30 4.95 30 9.9 30 15 C20.1 15 10.2 15 0 15 C0 10.05 0 5.1 0 0 Z " fill="#D2D2D2" transform="translate(420,405)"/>
<path d="M0 0 C9.9 0 19.8 0 30 0 C30 4.95 30 9.9 30 15 C20.1 15 10.2 15 0 15 C0 10.05 0 5.1 0 0 Z " fill="#84C573" transform="translate(390,405)"/>
<path d="M0 0 C9.9 0 19.8 0 30 0 C30 4.95 30 9.9 30 15 C20.1 15 10.2 15 0 15 C0 10.05 0 5.1 0 0 Z " fill="#84C573" transform="translate(600,390)"/>
<path d="M0 0 C9.9 0 19.8 0 30 0 C30 4.95 30 9.9 30 15 C20.1 15 10.2 15 0 15 C0 10.05 0 5.1 0 0 Z " fill="#FFFFFF" transform="translate(570,390)"/>
<path d="M0 0 C9.9 0 19.8 0 30 0 C30 4.95 30 9.9 30 15 C20.1 15 10.2 15 0 15 C0 10.05 0 5.1 0 0 Z " fill="#FFFFFF" transform="translate(390,390)"/>
<path d="M0 0 C9.9 0 19.8 0 30 0 C30 4.95 30 9.9 30 15 C20.1 15 10.2 15 0 15 C0 10.05 0 5.1 0 0 Z " fill="#948C6B" transform="translate(555,375)"/>
<path d="M0 0 C9.9 0 19.8 0 30 0 C30 4.95 30 9.9 30 15 C20.1 15 10.2 15 0 15 C0 10.05 0 5.1 0 0 Z " fill="#4A6B3A" transform="translate(465,375)"/>
<path d="M0 0 C9.9 0 19.8 0 30 0 C30 4.95 30 9.9 30 15 C20.1 15 10.2 15 0 15 C0 10.05 0 5.1 0 0 Z " fill="#948C6B" transform="translate(435,375)"/>
<path d="M0 0 C9.9 0 19.8 0 30 0 C30 4.95 30 9.9 30 15 C20.1 15 10.2 15 0 15 C0 10.05 0 5.1 0 0 Z " fill="#AAAAAA" transform="translate(390,375)"/>
<path d="M0 0 C9.9 0 19.8 0 30 0 C30 4.95 30 9.9 30 15 C20.1 15 10.2 15 0 15 C0 10.05 0 5.1 0 0 Z " fill="#CDC59E" transform="translate(630,360)"/>
<path d="M0 0 C9.9 0 19.8 0 30 0 C30 4.95 30 9.9 30 15 C20.1 15 10.2 15 0 15 C0 10.05 0 5.1 0 0 Z " fill="#4A6B3A" transform="translate(525,360)"/>
<path d="M0 0 C4.95 0 9.9 0 15 0 C15 9.9 15 19.8 15 30 C10.05 30 5.1 30 0 30 C0 20.1 0 10.2 0 0 Z " fill="#4A6B3A" transform="translate(450,345)"/>
<path d="M0 0 C9.9 0 19.8 0 30 0 C30 4.95 30 9.9 30 15 C20.1 15 10.2 15 0 15 C0 10.05 0 5.1 0 0 Z " fill="#948C6B" transform="translate(390,360)"/>
<path d="M0 0 C9.9 0 19.8 0 30 0 C30 4.95 30 9.9 30 15 C20.1 15 10.2 15 0 15 C0 10.05 0 5.1 0 0 Z " fill="#84C573" transform="translate(345,345)"/>
<path d="M0 0 C4.95 0 9.9 0 15 0 C15 9.9 15 19.8 15 30 C10.05 30 5.1 30 0 30 C0 20.1 0 10.2 0 0 Z " fill="#D2D2D2" transform="translate(330,330)"/>
<path d="M0 0 C9.9 0 19.8 0 30 0 C30 4.95 30 9.9 30 15 C20.1 15 10.2 15 0 15 C0 10.05 0 5.1 0 0 Z " fill="#5A944A" transform="translate(630,315)"/>
<path d="M0 0 C4.95 0 9.9 0 15 0 C15 9.9 15 19.8 15 30 C10.05 30 5.1 30 0 30 C0 20.1 0 10.2 0 0 Z " fill="#E8D45F" transform="translate(525,300)"/>
<path d="M0 0 C4.95 0 9.9 0 15 0 C15 9.9 15 19.8 15 30 C10.05 30 5.1 30 0 30 C0 20.1 0 10.2 0 0 Z " fill="#7A70C4" transform="translate(315,285)"/>
<path d="M0 0 C9.9 0 19.8 0 30 0 C30 4.95 30 9.9 30 15 C20.1 15 10.2 15 0 15 C0 10.05 0 5.1 0 0 Z " fill="#9C846B" transform="translate(555,270)"/>
<path d="M0 0 C9.9 0 19.8 0 30 0 C30 4.95 30 9.9 30 15 C20.1 15 10.2 15 0 15 C0 10.05 0 5.1 0 0 Z " fill="#5A944A" transform="translate(330,270)"/>
<path d="M0 0 C9.9 0 19.8 0 30 0 C30 4.95 30 9.9 30 15 C20.1 15 10.2 15 0 15 C0 10.05 0 5.1 0 0 Z " fill="#CDC59E" transform="translate(330,255)"/>
<path d="M0 0 C9.9 0 19.8 0 30 0 C30 4.95 30 9.9 30 15 C20.1 15 10.2 15 0 15 C0 10.05 0 5.1 0 0 Z " fill="#9C846B" transform="translate(525,240)"/>
<path d="M0 0 C9.9 0 19.8 0 30 0 C30 4.95 30 9.9 30 15 C20.1 15 10.2 15 0 15 C0 10.05 0 5.1 0 0 Z " fill="#84C573" transform="translate(345,240)"/>
<path d="M0 0 C4.95 0 9.9 0 15 0 C15 9.9 15 19.8 15 30 C10.05 30 5.1 30 0 30 C0 20.1 0 10.2 0 0 Z " fill="#AAAAAA" transform="translate(330,225)"/>
<path d="M0 0 C9.9 0 19.8 0 30 0 C30 4.95 30 9.9 30 15 C20.1 15 10.2 15 0 15 C0 10.05 0 5.1 0 0 Z " fill="#D2D2D2" transform="translate(435,225)"/>
<path d="M0 0 C9.9 0 19.8 0 30 0 C30 4.95 30 9.9 30 15 C20.1 15 10.2 15 0 15 C0 10.05 0 5.1 0 0 Z " fill="#D2D2D2" transform="translate(345,210)"/>
<path d="M0 0 C4.95 0 9.9 0 15 0 C15 9.9 15 19.8 15 30 C10.05 30 5.1 30 0 30 C0 20.1 0 10.2 0 0 Z " fill="#84C573" transform="translate(600,180)"/>
<path d="M0 0 C9.9 0 19.8 0 30 0 C30 4.95 30 9.9 30 15 C20.1 15 10.2 15 0 15 C0 10.05 0 5.1 0 0 Z " fill="#D2D2D2" transform="translate(360,180)"/>
<path d="M0 0 C4.95 0 9.9 0 15 0 C15 9.9 15 19.8 15 30 C10.05 30 5.1 30 0 30 C0 20.1 0 10.2 0 0 Z " fill="#84C573" transform="translate(495,135)"/>
<path d="M0 0 C4.95 0 9.9 0 15 0 C15 9.9 15 19.8 15 30 C10.05 30 5.1 30 0 30 C0 20.1 0 10.2 0 0 Z " fill="#5A944A" transform="translate(450,135)"/>
<path d="M0 0 C9.9 0 19.8 0 30 0 C30 4.95 30 9.9 30 15 C20.1 15 10.2 15 0 15 C0 10.05 0 5.1 0 0 Z " fill="#4D31B8" transform="translate(525,120)"/>
<path d="M0 0 C9.9 0 19.8 0 30 0 C30 4.95 30 9.9 30 15 C20.1 15 10.2 15 0 15 C0 10.05 0 5.1 0 0 Z " fill="#B3B9D1" transform="translate(495,120)"/>
<path d="M0 0 C9.9 0 19.8 0 30 0 C30 4.95 30 9.9 30 15 C20.1 15 10.2 15 0 15 C0 10.05 0 5.1 0 0 Z " fill="#7A71C4" transform="translate(450,120)"/>
<path d="M0 0 C4.95 0 9.9 0 15 0 C15 4.95 15 9.9 15 15 C10.05 15 5.1 15 0 15 C0 10.05 0 5.1 0 0 Z " fill="#4D31B8" transform="translate(540,465)"/>
<path d="M0 0 C4.95 0 9.9 0 15 0 C15 4.95 15 9.9 15 15 C10.05 15 5.1 15 0 15 C0 10.05 0 5.1 0 0 Z " fill="#7A71C4" transform="translate(525,465)"/>
<path d="M0 0 C4.95 0 9.9 0 15 0 C15 4.95 15 9.9 15 15 C10.05 15 5.1 15 0 15 C0 10.05 0 5.1 0 0 Z " fill="#AAAAAA" transform="translate(510,465)"/>
<path d="M0 0 C4.95 0 9.9 0 15 0 C15 4.95 15 9.9 15 15 C10.05 15 5.1 15 0 15 C0 10.05 0 5.1 0 0 Z " fill="#B3B9D1" transform="translate(555,450)"/>
<path d="M0 0 C4.95 0 9.9 0 15 0 C15 4.95 15 9.9 15 15 C10.05 15 5.1 15 0 15 C0 10.05 0 5.1 0 0 Z " fill="#5A944A" transform="translate(465,450)"/>
<path d="M0 0 C4.95 0 9.9 0 15 0 C15 4.95 15 9.9 15 15 C10.05 15 5.1 15 0 15 C0 10.05 0 5.1 0 0 Z " fill="#FEFFFF" transform="translate(450,450)"/>
<path d="M0 0 C4.95 0 9.9 0 15 0 C15 4.95 15 9.9 15 15 C10.05 15 5.1 15 0 15 C0 10.05 0 5.1 0 0 Z " fill="#D2D2D2" transform="translate(435,450)"/>
<path d="M0 0 C4.95 0 9.9 0 15 0 C15 4.95 15 9.9 15 15 C10.05 15 5.1 15 0 15 C0 10.05 0 5.1 0 0 Z " fill="#B3B9D1" transform="translate(420,450)"/>
<path d="M0 0 C4.95 0 9.9 0 15 0 C15 4.95 15 9.9 15 15 C10.05 15 5.1 15 0 15 C0 10.05 0 5.1 0 0 Z " fill="#4D31B8" transform="translate(405,450)"/>
<path d="M0 0 C4.95 0 9.9 0 15 0 C15 4.95 15 9.9 15 15 C10.05 15 5.1 15 0 15 C0 10.05 0 5.1 0 0 Z " fill="#4D31B8" transform="translate(600,435)"/>
<path d="M0 0 C4.95 0 9.9 0 15 0 C15 4.95 15 9.9 15 15 C10.05 15 5.1 15 0 15 C0 10.05 0 5.1 0 0 Z " fill="#FFFEFE" transform="translate(570,435)"/>
<path d="M0 0 C4.95 0 9.9 0 15 0 C15 4.95 15 9.9 15 15 C10.05 15 5.1 15 0 15 C0 10.05 0 5.1 0 0 Z " fill="#5A944A" transform="translate(540,435)"/>
<path d="M0 0 C4.95 0 9.9 0 15 0 C15 4.95 15 9.9 15 15 C10.05 15 5.1 15 0 15 C0 10.05 0 5.1 0 0 Z " fill="#CDC59E" transform="translate(525,435)"/>
<path d="M0 0 C4.95 0 9.9 0 15 0 C15 4.95 15 9.9 15 15 C10.05 15 5.1 15 0 15 C0 10.05 0 5.1 0 0 Z " fill="#D2D2D2" transform="translate(495,435)"/>
<path d="M0 0 C4.95 0 9.9 0 15 0 C15 4.95 15 9.9 15 15 C10.05 15 5.1 15 0 15 C0 10.05 0 5.1 0 0 Z " fill="#CDC59E" transform="translate(450,435)"/>
<path d="M0 0 C4.95 0 9.9 0 15 0 C15 4.95 15 9.9 15 15 C10.05 15 5.1 15 0 15 C0 10.05 0 5.1 0 0 Z " fill="#AAAAAA" transform="translate(435,435)"/>
<path d="M0 0 C4.95 0 9.9 0 15 0 C15 4.95 15 9.9 15 15 C10.05 15 5.1 15 0 15 C0 10.05 0 5.1 0 0 Z " fill="#84C573" transform="translate(420,435)"/>
<path d="M0 0 C4.95 0 9.9 0 15 0 C15 4.95 15 9.9 15 15 C10.05 15 5.1 15 0 15 C0 10.05 0 5.1 0 0 Z " fill="#FFFFFF" transform="translate(405,435)"/>
<path d="M0 0 C4.95 0 9.9 0 15 0 C15 4.95 15 9.9 15 15 C10.05 15 5.1 15 0 15 C0 10.05 0 5.1 0 0 Z " fill="#7A71C4" transform="translate(390,435)"/>
<path d="M0 0 C4.95 0 9.9 0 15 0 C15 4.95 15 9.9 15 15 C10.05 15 5.1 15 0 15 C0 10.05 0 5.1 0 0 Z " fill="#7A71C4" transform="translate(615,420)"/>
<path d="M0 0 C4.95 0 9.9 0 15 0 C15 4.95 15 9.9 15 15 C10.05 15 5.1 15 0 15 C0 10.05 0 5.1 0 0 Z " fill="#5A944A" transform="translate(585,420)"/>
<path d="M0 0 C4.95 0 9.9 0 15 0 C15 4.95 15 9.9 15 15 C10.05 15 5.1 15 0 15 C0 10.05 0 5.1 0 0 Z " fill="#D2D2D2" transform="translate(510,420)"/>
<path d="M0 0 C4.95 0 9.9 0 15 0 C15 4.95 15 9.9 15 15 C10.05 15 5.1 15 0 15 C0 10.05 0 5.1 0 0 Z " fill="#B3B9D1" transform="translate(465,420)"/>
<path d="M0 0 C4.95 0 9.9 0 15 0 C15 4.95 15 9.9 15 15 C10.05 15 5.1 15 0 15 C0 10.05 0 5.1 0 0 Z " fill="#84C573" transform="translate(435,420)"/>
<path d="M0 0 C4.95 0 9.9 0 15 0 C15 4.95 15 9.9 15 15 C10.05 15 5.1 15 0 15 C0 10.05 0 5.1 0 0 Z " fill="#AAAAAA" transform="translate(420,420)"/>
<path d="M0 0 C4.95 0 9.9 0 15 0 C15 4.95 15 9.9 15 15 C10.05 15 5.1 15 0 15 C0 10.05 0 5.1 0 0 Z " fill="#AAAAAA" transform="translate(390,420)"/>
<path d="M0 0 C4.95 0 9.9 0 15 0 C15 4.95 15 9.9 15 15 C10.05 15 5.1 15 0 15 C0 10.05 0 5.1 0 0 Z " fill="#4D31B8" transform="translate(630,405)"/>
<path d="M0 0 C4.95 0 9.9 0 15 0 C15 4.95 15 9.9 15 15 C10.05 15 5.1 15 0 15 C0 10.05 0 5.1 0 0 Z " fill="#DBA463" transform="translate(510,405)"/>
<path d="M0 0 C4.95 0 9.9 0 15 0 C15 4.95 15 9.9 15 15 C10.05 15 5.1 15 0 15 C0 10.05 0 5.1 0 0 Z " fill="#9C846B" transform="translate(495,405)"/>
<path d="M0 0 C4.95 0 9.9 0 15 0 C15 4.95 15 9.9 15 15 C10.05 15 5.1 15 0 15 C0 10.05 0 5.1 0 0 Z " fill="#CDC59E" transform="translate(450,405)"/>
<path d="M0 0 C4.95 0 9.9 0 15 0 C15 4.95 15 9.9 15 15 C10.05 15 5.1 15 0 15 C0 10.05 0 5.1 0 0 Z " fill="#FFFFFF" transform="translate(420,405)"/>
<path d="M0 0 C4.95 0 9.9 0 15 0 C15 4.95 15 9.9 15 15 C10.05 15 5.1 15 0 15 C0 10.05 0 5.1 0 0 Z " fill="#5A944A" transform="translate(390,405)"/>
<path d="M0 0 C4.95 0 9.9 0 15 0 C15 4.95 15 9.9 15 15 C10.05 15 5.1 15 0 15 C0 10.05 0 5.1 0 0 Z " fill="#FFFFFF" transform="translate(375,405)"/>
<path d="M0 0 C4.95 0 9.9 0 15 0 C15 4.95 15 9.9 15 15 C10.05 15 5.1 15 0 15 C0 10.05 0 5.1 0 0 Z " fill="#B2B9D1" transform="translate(360,405)"/>
<path d="M0 0 C4.95 0 9.9 0 15 0 C15 4.95 15 9.9 15 15 C10.05 15 5.1 15 0 15 C0 10.05 0 5.1 0 0 Z " fill="#D2D2D2" transform="translate(570,390)"/>
<path d="M0 0 C4.95 0 9.9 0 15 0 C15 4.95 15 9.9 15 15 C10.05 15 5.1 15 0 15 C0 10.05 0 5.1 0 0 Z " fill="#4A4284" transform="translate(555,390)"/>
<path d="M0 0 C4.95 0 9.9 0 15 0 C15 4.95 15 9.9 15 15 C10.05 15 5.1 15 0 15 C0 10.05 0 5.1 0 0 Z " fill="#7B6352" transform="translate(540,390)"/>
<path d="M0 0 C4.95 0 9.9 0 15 0 C15 4.95 15 9.9 15 15 C10.05 15 5.1 15 0 15 C0 10.05 0 5.1 0 0 Z " fill="#DBA463" transform="translate(525,390)"/>
<path d="M0 0 C4.95 0 9.9 0 15 0 C15 4.95 15 9.9 15 15 C10.05 15 5.1 15 0 15 C0 10.05 0 5.1 0 0 Z " fill="#CDC59E" transform="translate(510,390)"/>
<path d="M0 0 C4.95 0 9.9 0 15 0 C15 4.95 15 9.9 15 15 C10.05 15 5.1 15 0 15 C0 10.05 0 5.1 0 0 Z " fill="#DBA462" transform="translate(465,390)"/>
<path d="M0 0 C4.95 0 9.9 0 15 0 C15 4.95 15 9.9 15 15 C10.05 15 5.1 15 0 15 C0 10.05 0 5.1 0 0 Z " fill="#7B6352" transform="translate(435,390)"/>
<path d="M0 0 C4.95 0 9.9 0 15 0 C15 4.95 15 9.9 15 15 C10.05 15 5.1 15 0 15 C0 10.05 0 5.1 0 0 Z " fill="#CDC49E" transform="translate(375,390)"/>
<path d="M0 0 C4.95 0 9.9 0 15 0 C15 4.95 15 9.9 15 15 C10.05 15 5.1 15 0 15 C0 10.05 0 5.1 0 0 Z " fill="#7A71C4" transform="translate(345,390)"/>
<path d="M0 0 C4.95 0 9.9 0 15 0 C15 4.95 15 9.9 15 15 C10.05 15 5.1 15 0 15 C0 10.05 0 5.1 0 0 Z " fill="#B3B9D1" transform="translate(645,375)"/>
<path d="M0 0 C4.95 0 9.9 0 15 0 C15 4.95 15 9.9 15 15 C10.05 15 5.1 15 0 15 C0 10.05 0 5.1 0 0 Z " fill="#FFFFFF" transform="translate(630,375)"/>
<path d="M0 0 C4.95 0 9.9 0 15 0 C15 4.95 15 9.9 15 15 C10.05 15 5.1 15 0 15 C0 10.05 0 5.1 0 0 Z " fill="#9C8431" transform="translate(555,375)"/>
<path d="M0 0 C4.95 0 9.9 0 15 0 C15 4.95 15 9.9 15 15 C10.05 15 5.1 15 0 15 C0 10.05 0 5.1 0 0 Z " fill="#5A944A" transform="translate(510,375)"/>
<path d="M0 0 C4.95 0 9.9 0 15 0 C15 4.95 15 9.9 15 15 C10.05 15 5.1 15 0 15 C0 10.05 0 5.1 0 0 Z " fill="#0C816E" transform="translate(495,375)"/>
<path d="M0 0 C4.95 0 9.9 0 15 0 C15 4.95 15 9.9 15 15 C10.05 15 5.1 15 0 15 C0 10.05 0 5.1 0 0 Z " fill="#5A944A" transform="translate(465,375)"/>
<path d="M0 0 C4.95 0 9.9 0 15 0 C15 4.95 15 9.9 15 15 C10.05 15 5.1 15 0 15 C0 10.05 0 5.1 0 0 Z " fill="#84C573" transform="translate(435,375)"/>
<path d="M0 0 C4.95 0 9.9 0 15 0 C15 4.95 15 9.9 15 15 C10.05 15 5.1 15 0 15 C0 10.05 0 5.1 0 0 Z " fill="#CDC59E" transform="translate(390,375)"/>
<path d="M0 0 C4.95 0 9.9 0 15 0 C15 4.95 15 9.9 15 15 C10.05 15 5.1 15 0 15 C0 10.05 0 5.1 0 0 Z " fill="#FFFFFF" transform="translate(345,375)"/>
<path d="M0 0 C4.95 0 9.9 0 15 0 C15 4.95 15 9.9 15 15 C10.05 15 5.1 15 0 15 C0 10.05 0 5.1 0 0 Z " fill="#5A944A" transform="translate(630,360)"/>
<path d="M0 0 C4.95 0 9.9 0 15 0 C15 4.95 15 9.9 15 15 C10.05 15 5.1 15 0 15 C0 10.05 0 5.1 0 0 Z " fill="#D2D2D2" transform="translate(615,360)"/>
<path d="M0 0 C4.95 0 9.9 0 15 0 C15 4.95 15 9.9 15 15 C10.05 15 5.1 15 0 15 C0 10.05 0 5.1 0 0 Z " fill="#AAAAAA" transform="translate(585,360)"/>
<path d="M0 0 C4.95 0 9.9 0 15 0 C15 4.95 15 9.9 15 15 C10.05 15 5.1 15 0 15 C0 10.05 0 5.1 0 0 Z " fill="#0C816E" transform="translate(465,360)"/>
<path d="M0 0 C4.95 0 9.9 0 15 0 C15 4.95 15 9.9 15 15 C10.05 15 5.1 15 0 15 C0 10.05 0 5.1 0 0 Z " fill="#84C573" transform="translate(390,360)"/>
<path d="M0 0 C4.95 0 9.9 0 15 0 C15 4.95 15 9.9 15 15 C10.05 15 5.1 15 0 15 C0 10.05 0 5.1 0 0 Z " fill="#FFFFFF" transform="translate(375,360)"/>
<path d="M0 0 C4.95 0 9.9 0 15 0 C15 4.95 15 9.9 15 15 C10.05 15 5.1 15 0 15 C0 10.05 0 5.1 0 0 Z " fill="#D2D2D2" transform="translate(345,360)"/>
<path d="M0 0 C4.95 0 9.9 0 15 0 C15 4.95 15 9.9 15 15 C10.05 15 5.1 15 0 15 C0 10.05 0 5.1 0 0 Z " fill="#7A71C4" transform="translate(330,360)"/>
<path d="M0 0 C4.95 0 9.9 0 15 0 C15 4.95 15 9.9 15 15 C10.05 15 5.1 15 0 15 C0 10.05 0 5.1 0 0 Z " fill="#7A71C4" transform="translate(660,345)"/>
<path d="M0 0 C4.95 0 9.9 0 15 0 C15 4.95 15 9.9 15 15 C10.05 15 5.1 15 0 15 C0 10.05 0 5.1 0 0 Z " fill="#CDC59E" transform="translate(540,345)"/>
<path d="M0 0 C4.95 0 9.9 0 15 0 C15 4.95 15 9.9 15 15 C10.05 15 5.1 15 0 15 C0 10.05 0 5.1 0 0 Z " fill="#7A71C4" transform="translate(465,345)"/>
<path d="M0 0 C4.95 0 9.9 0 15 0 C15 4.95 15 9.9 15 15 C10.05 15 5.1 15 0 15 C0 10.05 0 5.1 0 0 Z " fill="#5A944A" transform="translate(450,345)"/>
<path d="M0 0 C4.95 0 9.9 0 15 0 C15 4.95 15 9.9 15 15 C10.05 15 5.1 15 0 15 C0 10.05 0 5.1 0 0 Z " fill="#CDC59E" transform="translate(420,345)"/>
<path d="M0 0 C4.95 0 9.9 0 15 0 C15 4.95 15 9.9 15 15 C10.05 15 5.1 15 0 15 C0 10.05 0 5.1 0 0 Z " fill="#D2D2D2" transform="translate(375,345)"/>
<path d="M0 0 C4.95 0 9.9 0 15 0 C15 4.95 15 9.9 15 15 C10.05 15 5.1 15 0 15 C0 10.05 0 5.1 0 0 Z " fill="#5A944A" transform="translate(345,345)"/>
<path d="M0 0 C4.95 0 9.9 0 15 0 C15 4.95 15 9.9 15 15 C10.05 15 5.1 15 0 15 C0 10.05 0 5.1 0 0 Z " fill="#CCC59E" transform="translate(645,330)"/>
<path d="M0 0 C4.95 0 9.9 0 15 0 C15 4.95 15 9.9 15 15 C10.05 15 5.1 15 0 15 C0 10.05 0 5.1 0 0 Z " fill="#CDC59E" transform="translate(525,330)"/>
<path d="M0 0 C4.95 0 9.9 0 15 0 C15 4.95 15 9.9 15 15 C10.05 15 5.1 15 0 15 C0 10.05 0 5.1 0 0 Z " fill="#B3B9D1" transform="translate(465,330)"/>
<path d="M0 0 C4.95 0 9.9 0 15 0 C15 4.95 15 9.9 15 15 C10.05 15 5.1 15 0 15 C0 10.05 0 5.1 0 0 Z " fill="#FFFFFF" transform="translate(420,330)"/>
<path d="M0 0 C4.95 0 9.9 0 15 0 C15 4.95 15 9.9 15 15 C10.05 15 5.1 15 0 15 C0 10.05 0 5.1 0 0 Z " fill="#FFFFFF" transform="translate(330,330)"/>
<path d="M0 0 C4.95 0 9.9 0 15 0 C15 4.95 15 9.9 15 15 C10.05 15 5.1 15 0 15 C0 10.05 0 5.1 0 0 Z " fill="#84C573" transform="translate(630,315)"/>
<path d="M0 0 C4.95 0 9.9 0 15 0 C15 4.95 15 9.9 15 15 C10.05 15 5.1 15 0 15 C0 10.05 0 5.1 0 0 Z " fill="#FFFFFF" transform="translate(465,315)"/>
<path d="M0 0 C4.95 0 9.9 0 15 0 C15 4.95 15 9.9 15 15 C10.05 15 5.1 15 0 15 C0 10.05 0 5.1 0 0 Z " fill="#84C573" transform="translate(330,315)"/>
<path d="M0 0 C4.95 0 9.9 0 15 0 C15 4.95 15 9.9 15 15 C10.05 15 5.1 15 0 15 C0 10.05 0 5.1 0 0 Z " fill="#4D31B8" transform="translate(315,315)"/>
<path d="M0 0 C4.95 0 9.9 0 15 0 C15 4.95 15 9.9 15 15 C10.05 15 5.1 15 0 15 C0 10.05 0 5.1 0 0 Z " fill="#FFFFFF" transform="translate(660,300)"/>
<path d="M0 0 C4.95 0 9.9 0 15 0 C15 4.95 15 9.9 15 15 C10.05 15 5.1 15 0 15 C0 10.05 0 5.1 0 0 Z " fill="#D2D2D2" transform="translate(630,300)"/>
<path d="M0 0 C4.95 0 9.9 0 15 0 C15 4.95 15 9.9 15 15 C10.05 15 5.1 15 0 15 C0 10.05 0 5.1 0 0 Z " fill="#CDC59E" transform="translate(540,300)"/>
<path d="M0 0 C4.95 0 9.9 0 15 0 C15 4.95 15 9.9 15 15 C10.05 15 5.1 15 0 15 C0 10.05 0 5.1 0 0 Z " fill="#F8B277" transform="translate(525,300)"/>
<path d="M0 0 C4.95 0 9.9 0 15 0 C15 4.95 15 9.9 15 15 C10.05 15 5.1 15 0 15 C0 10.05 0 5.1 0 0 Z " fill="#5A944A" transform="translate(345,300)"/>
<path d="M0 0 C4.95 0 9.9 0 15 0 C15 4.95 15 9.9 15 15 C10.05 15 5.1 15 0 15 C0 10.05 0 5.1 0 0 Z " fill="#D2D2D2" transform="translate(660,285)"/>
<path d="M0 0 C4.95 0 9.9 0 15 0 C15 4.95 15 9.9 15 15 C10.05 15 5.1 15 0 15 C0 10.05 0 5.1 0 0 Z " fill="#5A944A" transform="translate(645,285)"/>
<path d="M0 0 C4.95 0 9.9 0 15 0 C15 4.95 15 9.9 15 15 C10.05 15 5.1 15 0 15 C0 10.05 0 5.1 0 0 Z " fill="#FFC5A5" transform="translate(495,285)"/>
<path d="M0 0 C4.95 0 9.9 0 15 0 C15 4.95 15 9.9 15 15 C10.05 15 5.1 15 0 15 C0 10.05 0 5.1 0 0 Z " fill="#CDC59E" transform="translate(465,285)"/>
<path d="M0 0 C4.95 0 9.9 0 15 0 C15 4.95 15 9.9 15 15 C10.05 15 5.1 15 0 15 C0 10.05 0 5.1 0 0 Z " fill="#FFFFFF" transform="translate(450,285)"/>
<path d="M0 0 C4.95 0 9.9 0 15 0 C15 4.95 15 9.9 15 15 C10.05 15 5.1 15 0 15 C0 10.05 0 5.1 0 0 Z " fill="#CDC59E" transform="translate(345,285)"/>
<path d="M0 0 C4.95 0 9.9 0 15 0 C15 4.95 15 9.9 15 15 C10.05 15 5.1 15 0 15 C0 10.05 0 5.1 0 0 Z " fill="#AAAAAA" transform="translate(660,270)"/>
<path d="M0 0 C4.95 0 9.9 0 15 0 C15 4.95 15 9.9 15 15 C10.05 15 5.1 15 0 15 C0 10.05 0 5.1 0 0 Z " fill="#AAAAAA" transform="translate(435,270)"/>
<path d="M0 0 C4.95 0 9.9 0 15 0 C15 4.95 15 9.9 15 15 C10.05 15 5.1 15 0 15 C0 10.05 0 5.1 0 0 Z " fill="#D2D2D2" transform="translate(405,270)"/>
<path d="M0 0 C4.95 0 9.9 0 15 0 C15 4.95 15 9.9 15 15 C10.05 15 5.1 15 0 15 C0 10.05 0 5.1 0 0 Z " fill="#84C573" transform="translate(330,270)"/>
<path d="M0 0 C4.95 0 9.9 0 15 0 C15 4.95 15 9.9 15 15 C10.05 15 5.1 15 0 15 C0 10.05 0 5.1 0 0 Z " fill="#4D31B8" transform="translate(315,270)"/>
<path d="M0 0 C4.95 0 9.9 0 15 0 C15 4.95 15 9.9 15 15 C10.05 15 5.1 15 0 15 C0 10.05 0 5.1 0 0 Z " fill="#D2D2D2" transform="translate(600,255)"/>
<path d="M0 0 C4.95 0 9.9 0 15 0 C15 4.95 15 9.9 15 15 C10.05 15 5.1 15 0 15 C0 10.05 0 5.1 0 0 Z " fill="#7B6352" transform="translate(540,255)"/>
<path d="M0 0 C4.95 0 9.9 0 15 0 C15 4.95 15 9.9 15 15 C10.05 15 5.1 15 0 15 C0 10.05 0 5.1 0 0 Z " fill="#AAAAAA" transform="translate(525,255)"/>
<path d="M0 0 C4.95 0 9.9 0 15 0 C15 4.95 15 9.9 15 15 C10.05 15 5.1 15 0 15 C0 10.05 0 5.1 0 0 Z " fill="#D2D2D2" transform="translate(510,255)"/>
<path d="M0 0 C4.95 0 9.9 0 15 0 C15 4.95 15 9.9 15 15 C10.05 15 5.1 15 0 15 C0 10.05 0 5.1 0 0 Z " fill="#D6B594" transform="translate(495,255)"/>
<path d="M0 0 C4.95 0 9.9 0 15 0 C15 4.95 15 9.9 15 15 C10.05 15 5.1 15 0 15 C0 10.05 0 5.1 0 0 Z " fill="#AAAAAA" transform="translate(450,255)"/>
<path d="M0 0 C4.95 0 9.9 0 15 0 C15 4.95 15 9.9 15 15 C10.05 15 5.1 15 0 15 C0 10.05 0 5.1 0 0 Z " fill="#D6B594" transform="translate(390,255)"/>
<path d="M0 0 C4.95 0 9.9 0 15 0 C15 4.95 15 9.9 15 15 C10.05 15 5.1 15 0 15 C0 10.05 0 5.1 0 0 Z " fill="#FFFFFF" transform="translate(330,255)"/>
<path d="M0 0 C4.95 0 9.9 0 15 0 C15 4.95 15 9.9 15 15 C10.05 15 5.1 15 0 15 C0 10.05 0 5.1 0 0 Z " fill="#7A71C4" transform="translate(660,240)"/>
<path d="M0 0 C4.95 0 9.9 0 15 0 C15 4.95 15 9.9 15 15 C10.05 15 5.1 15 0 15 C0 10.05 0 5.1 0 0 Z " fill="#9C846B" transform="translate(600,240)"/>
<path d="M0 0 C4.95 0 9.9 0 15 0 C15 4.95 15 9.9 15 15 C10.05 15 5.1 15 0 15 C0 10.05 0 5.1 0 0 Z " fill="#7B6352" transform="translate(585,240)"/>
<path d="M0 0 C4.95 0 9.9 0 15 0 C15 4.95 15 9.9 15 15 C10.05 15 5.1 15 0 15 C0 10.05 0 5.1 0 0 Z " fill="#84C573" transform="translate(525,240)"/>
<path d="M0 0 C4.95 0 9.9 0 15 0 C15 4.95 15 9.9 15 15 C10.05 15 5.1 15 0 15 C0 10.05 0 5.1 0 0 Z " fill="#4A6B3A" transform="translate(510,240)"/>
<path d="M0 0 C4.95 0 9.9 0 15 0 C15 4.95 15 9.9 15 15 C10.05 15 5.1 15 0 15 C0 10.05 0 5.1 0 0 Z " fill="#5A944A" transform="translate(465,240)"/>
<path d="M0 0 C4.95 0 9.9 0 15 0 C15 4.95 15 9.9 15 15 C10.05 15 5.1 15 0 15 C0 10.05 0 5.1 0 0 Z " fill="#84C573" transform="translate(450,240)"/>
<path d="M0 0 C4.95 0 9.9 0 15 0 C15 4.95 15 9.9 15 15 C10.05 15 5.1 15 0 15 C0 10.05 0 5.1 0 0 Z " fill="#FFFFFF" transform="translate(645,225)"/>
<path d="M0 0 C4.95 0 9.9 0 15 0 C15 4.95 15 9.9 15 15 C10.05 15 5.1 15 0 15 C0 10.05 0 5.1 0 0 Z " fill="#9C846B" transform="translate(570,225)"/>
<path d="M0 0 C4.95 0 9.9 0 15 0 C15 4.95 15 9.9 15 15 C10.05 15 5.1 15 0 15 C0 10.05 0 5.1 0 0 Z " fill="#84C573" transform="translate(465,225)"/>
<path d="M0 0 C4.95 0 9.9 0 15 0 C15 4.95 15 9.9 15 15 C10.05 15 5.1 15 0 15 C0 10.05 0 5.1 0 0 Z " fill="#D6B594" transform="translate(435,225)"/>
<path d="M0 0 C4.95 0 9.9 0 15 0 C15 4.95 15 9.9 15 15 C10.05 15 5.1 15 0 15 C0 10.05 0 5.1 0 0 Z " fill="#D2D2D2" transform="translate(405,225)"/>
<path d="M0 0 C4.95 0 9.9 0 15 0 C15 4.95 15 9.9 15 15 C10.05 15 5.1 15 0 15 C0 10.05 0 5.1 0 0 Z " fill="#7A71C4" transform="translate(330,225)"/>
<path d="M0 0 C4.95 0 9.9 0 15 0 C15 4.95 15 9.9 15 15 C10.05 15 5.1 15 0 15 C0 10.05 0 5.1 0 0 Z " fill="#B3B9D1" transform="translate(645,210)"/>
<path d="M0 0 C4.95 0 9.9 0 15 0 C15 4.95 15 9.9 15 15 C10.05 15 5.1 15 0 15 C0 10.05 0 5.1 0 0 Z " fill="#84C573" transform="translate(630,210)"/>
<path d="M0 0 C4.95 0 9.9 0 15 0 C15 4.95 15 9.9 15 15 C10.05 15 5.1 15 0 15 C0 10.05 0 5.1 0 0 Z " fill="#D2D2D2" transform="translate(600,210)"/>
<path d="M0 0 C4.95 0 9.9 0 15 0 C15 4.95 15 9.9 15 15 C10.05 15 5.1 15 0 15 C0 10.05 0 5.1 0 0 Z " fill="#AAAAAA" transform="translate(570,210)"/>
<path d="M0 0 C4.95 0 9.9 0 15 0 C15 4.95 15 9.9 15 15 C10.05 15 5.1 15 0 15 C0 10.05 0 5.1 0 0 Z " fill="#D18051" transform="translate(540,210)"/>
<path d="M0 0 C4.95 0 9.9 0 15 0 C15 4.95 15 9.9 15 15 C10.05 15 5.1 15 0 15 C0 10.05 0 5.1 0 0 Z " fill="#9C8431" transform="translate(525,210)"/>
<path d="M0 0 C4.95 0 9.9 0 15 0 C15 4.95 15 9.9 15 15 C10.05 15 5.1 15 0 15 C0 10.05 0 5.1 0 0 Z " fill="#948C6B" transform="translate(450,210)"/>
<path d="M0 0 C4.95 0 9.9 0 15 0 C15 4.95 15 9.9 15 15 C10.05 15 5.1 15 0 15 C0 10.05 0 5.1 0 0 Z " fill="#6D643F" transform="translate(435,210)"/>
<path d="M0 0 C4.95 0 9.9 0 15 0 C15 4.95 15 9.9 15 15 C10.05 15 5.1 15 0 15 C0 10.05 0 5.1 0 0 Z " fill="#AAAAAA" transform="translate(585,195)"/>
<path d="M0 0 C4.95 0 9.9 0 15 0 C15 4.95 15 9.9 15 15 C10.05 15 5.1 15 0 15 C0 10.05 0 5.1 0 0 Z " fill="#D2D2D2" transform="translate(570,195)"/>
<path d="M0 0 C4.95 0 9.9 0 15 0 C15 4.95 15 9.9 15 15 C10.05 15 5.1 15 0 15 C0 10.05 0 5.1 0 0 Z " fill="#5A944A" transform="translate(555,195)"/>
<path d="M0 0 C4.95 0 9.9 0 15 0 C15 4.95 15 9.9 15 15 C10.05 15 5.1 15 0 15 C0 10.05 0 5.1 0 0 Z " fill="#4A6B3A" transform="translate(540,195)"/>
<path d="M0 0 C4.95 0 9.9 0 15 0 C15 4.95 15 9.9 15 15 C10.05 15 5.1 15 0 15 C0 10.05 0 5.1 0 0 Z " fill="#9C8431" transform="translate(510,195)"/>
<path d="M0 0 C4.95 0 9.9 0 15 0 C15 4.95 15 9.9 15 15 C10.05 15 5.1 15 0 15 C0 10.05 0 5.1 0 0 Z " fill="#84C573" transform="translate(495,195)"/>
<path d="M0 0 C4.95 0 9.9 0 15 0 C15 4.95 15 9.9 15 15 C10.05 15 5.1 15 0 15 C0 10.05 0 5.1 0 0 Z " fill="#84C573" transform="translate(435,195)"/>
<path d="M0 0 C4.95 0 9.9 0 15 0 C15 4.95 15 9.9 15 15 C10.05 15 5.1 15 0 15 C0 10.05 0 5.1 0 0 Z " fill="#AAAAAA" transform="translate(420,195)"/>
<path d="M0 0 C4.95 0 9.9 0 15 0 C15 4.95 15 9.9 15 15 C10.05 15 5.1 15 0 15 C0 10.05 0 5.1 0 0 Z " fill="#CDC59E" transform="translate(390,195)"/>
<path d="M0 0 C4.95 0 9.9 0 15 0 C15 4.95 15 9.9 15 15 C10.05 15 5.1 15 0 15 C0 10.05 0 5.1 0 0 Z " fill="#4A4284" transform="translate(345,195)"/>
<path d="M0 0 C4.95 0 9.9 0 15 0 C15 4.95 15 9.9 15 15 C10.05 15 5.1 15 0 15 C0 10.05 0 5.1 0 0 Z " fill="#4D31B8" transform="translate(630,180)"/>
<path d="M0 0 C4.95 0 9.9 0 15 0 C15 4.95 15 9.9 15 15 C10.05 15 5.1 15 0 15 C0 10.05 0 5.1 0 0 Z " fill="#5A944A" transform="translate(600,180)"/>
<path d="M0 0 C4.95 0 9.9 0 15 0 C15 4.95 15 9.9 15 15 C10.05 15 5.1 15 0 15 C0 10.05 0 5.1 0 0 Z " fill="#D2D2D2" transform="translate(585,180)"/>
<path d="M0 0 C4.95 0 9.9 0 15 0 C15 4.95 15 9.9 15 15 C10.05 15 5.1 15 0 15 C0 10.05 0 5.1 0 0 Z " fill="#84C573" transform="translate(540,180)"/>
<path d="M0 0 C4.95 0 9.9 0 15 0 C15 4.95 15 9.9 15 15 C10.05 15 5.1 15 0 15 C0 10.05 0 5.1 0 0 Z " fill="#4A6B3A" transform="translate(450,180)"/>
<path d="M0 0 C4.95 0 9.9 0 15 0 C15 4.95 15 9.9 15 15 C10.05 15 5.1 15 0 15 C0 10.05 0 5.1 0 0 Z " fill="#AAAAAA" transform="translate(435,180)"/>
<path d="M0 0 C4.95 0 9.9 0 15 0 C15 4.95 15 9.9 15 15 C10.05 15 5.1 15 0 15 C0 10.05 0 5.1 0 0 Z " fill="#5A944A" transform="translate(390,180)"/>
<path d="M0 0 C4.95 0 9.9 0 15 0 C15 4.95 15 9.9 15 15 C10.05 15 5.1 15 0 15 C0 10.05 0 5.1 0 0 Z " fill="#B3B9D0" transform="translate(360,180)"/>
<path d="M0 0 C4.95 0 9.9 0 15 0 C15 4.95 15 9.9 15 15 C10.05 15 5.1 15 0 15 C0 10.05 0 5.1 0 0 Z " fill="#7A71C4" transform="translate(615,165)"/>
<path d="M0 0 C4.95 0 9.9 0 15 0 C15 4.95 15 9.9 15 15 C10.05 15 5.1 15 0 15 C0 10.05 0 5.1 0 0 Z " fill="#D2D2D2" transform="translate(600,165)"/>
<path d="M0 0 C4.95 0 9.9 0 15 0 C15 4.95 15 9.9 15 15 C10.05 15 5.1 15 0 15 C0 10.05 0 5.1 0 0 Z " fill="#AAAAAA" transform="translate(585,165)"/>
<path d="M0 0 C4.95 0 9.9 0 15 0 C15 4.95 15 9.9 15 15 C10.05 15 5.1 15 0 15 C0 10.05 0 5.1 0 0 Z " fill="#84C573" transform="translate(570,165)"/>
<path d="M0 0 C4.95 0 9.9 0 15 0 C15 4.95 15 9.9 15 15 C10.05 15 5.1 15 0 15 C0 10.05 0 5.1 0 0 Z " fill="#FFFFFF" transform="translate(540,165)"/>
<path d="M0 0 C4.95 0 9.9 0 15 0 C15 4.95 15 9.9 15 15 C10.05 15 5.1 15 0 15 C0 10.05 0 5.1 0 0 Z " fill="#CDC59E" transform="translate(525,165)"/>
<path d="M0 0 C4.95 0 9.9 0 15 0 C15 4.95 15 9.9 15 15 C10.05 15 5.1 15 0 15 C0 10.05 0 5.1 0 0 Z " fill="#84C573" transform="translate(510,165)"/>
<path d="M0 0 C4.95 0 9.9 0 15 0 C15 4.95 15 9.9 15 15 C10.05 15 5.1 15 0 15 C0 10.05 0 5.1 0 0 Z " fill="#AAAAAA" transform="translate(495,165)"/>
<path d="M0 0 C4.95 0 9.9 0 15 0 C15 4.95 15 9.9 15 15 C10.05 15 5.1 15 0 15 C0 10.05 0 5.1 0 0 Z " fill="#84C573" transform="translate(480,165)"/>
<path d="M0 0 C4.95 0 9.9 0 15 0 C15 4.95 15 9.9 15 15 C10.05 15 5.1 15 0 15 C0 10.05 0 5.1 0 0 Z " fill="#CDC59E" transform="translate(450,165)"/>
<path d="M0 0 C4.95 0 9.9 0 15 0 C15 4.95 15 9.9 15 15 C10.05 15 5.1 15 0 15 C0 10.05 0 5.1 0 0 Z " fill="#FFFFFF" transform="translate(435,165)"/>
<path d="M0 0 C4.95 0 9.9 0 15 0 C15 4.95 15 9.9 15 15 C10.05 15 5.1 15 0 15 C0 10.05 0 5.1 0 0 Z " fill="#5A944A" transform="translate(420,165)"/>
<path d="M0 0 C4.95 0 9.9 0 15 0 C15 4.95 15 9.9 15 15 C10.05 15 5.1 15 0 15 C0 10.05 0 5.1 0 0 Z " fill="#AAAAAA" transform="translate(375,165)"/>
<path d="M0 0 C4.95 0 9.9 0 15 0 C15 4.95 15 9.9 15 15 C10.05 15 5.1 15 0 15 C0 10.05 0 5.1 0 0 Z " fill="#4D31B8" transform="translate(600,150)"/>
<path d="M0 0 C4.95 0 9.9 0 15 0 C15 4.95 15 9.9 15 15 C10.05 15 5.1 15 0 15 C0 10.05 0 5.1 0 0 Z " fill="#D2D2D2" transform="translate(585,150)"/>
<path d="M0 0 C4.95 0 9.9 0 15 0 C15 4.95 15 9.9 15 15 C10.05 15 5.1 15 0 15 C0 10.05 0 5.1 0 0 Z " fill="#84C573" transform="translate(525,150)"/>
<path d="M0 0 C4.95 0 9.9 0 15 0 C15 4.95 15 9.9 15 15 C10.05 15 5.1 15 0 15 C0 10.05 0 5.1 0 0 Z " fill="#FFFFFF" transform="translate(510,150)"/>
<path d="M0 0 C4.95 0 9.9 0 15 0 C15 4.95 15 9.9 15 15 C10.05 15 5.1 15 0 15 C0 10.05 0 5.1 0 0 Z " fill="#CDC59E" transform="translate(480,150)"/>
<path d="M0 0 C4.95 0 9.9 0 15 0 C15 4.95 15 9.9 15 15 C10.05 15 5.1 15 0 15 C0 10.05 0 5.1 0 0 Z " fill="#CDC59E" transform="translate(435,150)"/>
<path d="M0 0 C4.95 0 9.9 0 15 0 C15 4.95 15 9.9 15 15 C10.05 15 5.1 15 0 15 C0 10.05 0 5.1 0 0 Z " fill="#7A71C4" transform="translate(390,150)"/>
<path d="M0 0 C4.95 0 9.9 0 15 0 C15 4.95 15 9.9 15 15 C10.05 15 5.1 15 0 15 C0 10.05 0 5.1 0 0 Z " fill="#7A71C4" transform="translate(570,135)"/>
<path d="M0 0 C4.95 0 9.9 0 15 0 C15 4.95 15 9.9 15 15 C10.05 15 5.1 15 0 15 C0 10.05 0 5.1 0 0 Z " fill="#FFFFFF" transform="translate(555,135)"/>
<path d="M0 0 C4.95 0 9.9 0 15 0 C15 4.95 15 9.9 15 15 C10.05 15 5.1 15 0 15 C0 10.05 0 5.1 0 0 Z " fill="#84C573" transform="translate(540,135)"/>
<path d="M0 0 C4.95 0 9.9 0 15 0 C15 4.95 15 9.9 15 15 C10.05 15 5.1 15 0 15 C0 10.05 0 5.1 0 0 Z " fill="#5A944A" transform="translate(495,135)"/>
<path d="M0 0 C4.95 0 9.9 0 15 0 C15 4.95 15 9.9 15 15 C10.05 15 5.1 15 0 15 C0 10.05 0 5.1 0 0 Z " fill="#84C573" transform="translate(450,135)"/>
<path d="M0 0 C4.95 0 9.9 0 15 0 C15 4.95 15 9.9 15 15 C10.05 15 5.1 15 0 15 C0 10.05 0 5.1 0 0 Z " fill="#B3B9D1" transform="translate(420,135)"/>
<path d="M0 0 C4.95 0 9.9 0 15 0 C15 4.95 15 9.9 15 15 C10.05 15 5.1 15 0 15 C0 10.05 0 5.1 0 0 Z " fill="#4D31B8" transform="translate(405,135)"/>
<path d="M0 0 C4.95 0 9.9 0 15 0 C15 4.95 15 9.9 15 15 C10.05 15 5.1 15 0 15 C0 10.05 0 5.1 0 0 Z " fill="#7A71C4" transform="translate(525,120)"/>
</svg>
